Simulation
nRows=24
nColumns=15
endheader
time  TH_x TH_y TH_z SC_y  SC_z  SC_x  AC_y  AC_z  AC_x  GH_y  GH_z  GH_yy  EL_x  PS_y
1.95  0.000000  0.000000  0.000000  -32.13135062947086  7.740008428090897  16.034324025934126  63.62870243420391  16.842145057698723  6.137885206694693  47.23067404245893  59.044054563501895  -40.511139974063994  22.320283267127085  0.000000
1.989  0.000000  0.000000  0.000000  -31.95584870138045  7.492551860093998  15.427216109208537  63.69806388775625  16.46860694869612  5.690402793095106  47.24025745201353  58.013214657862726  -39.753445133514134  22.521709320443083  0.000000
2.028  0.000000  0.000000  0.000000  -31.727235165763247  7.232027455718734  14.699164952906695  63.69925413905855  16.108342005121155  5.254202965264341  47.24418087169016  56.84886732006818  -38.88869034029536  22.7331560583967  0.000000
2.067  0.000000  0.000000  0.000000  -31.450142948690974  6.964264661375425  13.814955580308505  63.61613113153076  15.83587850415179  4.871624587550672  47.23572325858915  55.559261602051436  -37.93813913359983  22.951176625768053  0.000000
2.106  0.000000  0.000000  0.000000  -31.13435945859314  6.6969492435958475  12.771673982922694  63.43702057707144  15.70236524162695  4.563979140181788  47.208144200511384  54.157162169411656  -36.9319738723451  23.166116314969177  0.000000
2.145  0.000000  0.000000  0.000000  -30.76186704436485  6.4158012701904505  11.58687401490398  63.14533760490309  15.715783976599875  4.306950978561335  47.163753757162446  52.66192172040303  -35.89346975430744  23.36681699968235  0.000000
2.184  0.000000  0.000000  0.000000  -30.33633903633683  6.1087159739074535  10.273830445775998  62.760145685732084  15.852384179648535  4.08148701454255  47.105310648297056  51.0756911276645  -34.82274470009631  23.542188593281736  0.000000
2.223  0.000000  0.000000  0.000000  -29.913345904014395  5.746031247335217  8.834962555117146  62.35848450547734  16.081519839994236  3.8896291561158054  47.020943013515215  49.3886995713083  -33.70062773272264  23.68247889233969  0.000000
2.262  0.000000  0.000000  0.000000  -29.539157361130368  5.290402821457133  7.239133491365349  61.99963139988843  16.41891635818794  3.7490409388854995  46.883932441231046  47.59181701040891  -32.49455288683153  23.78603072917378  0.000000
2.301  0.000000  0.000000  0.000000  -29.203375620538402  4.727274648067639  5.426712149523546  61.67825450515048  16.92485667342515  3.67174534737849  46.66903025515314  45.67257959851308  -31.181405759914195  23.859486161011887  0.000000
2.34  0.000000  0.000000  0.000000  -28.907966635123813  4.0035223157541315  3.368352857388769  61.38299570248326  17.666090357587027  3.6354587905866853  46.355073105954254  43.615062606515075  -29.75511878149862  23.918621650550342  0.000000
2.379  0.000000  0.000000  0.000000  -28.634390187868433  3.1301835094449326  1.239805900527553  61.10077470276015  18.55882594364845  3.575505118172165  45.924714822406514  41.40209947565598  -28.21823077314384  23.985516980479844  0.000000
2.418  0.000000  0.000000  0.000000  -28.362408110038285  2.233690587930633  -0.5058714159167581  60.83600414961548  19.19181039281887  3.3457558389461926  45.36515844249224  39.11720418299629  -26.570358155482445  24.085792797399673  0.000000
2.457  0.000000  0.000000  0.000000  -28.090606666930807  1.4393326744894968  -1.6477872223464138  60.56556743419092  19.281508939463844  2.9175482299643503  44.65172222063126  36.904828237399386  -24.789497233242656  24.256577736995844  0.000000
2.496  0.000000  0.000000  0.000000  -27.809898863560306  0.8182205484604328  -2.3516671407663443  60.2263508763279  18.91918756698785  2.40632292098354  43.77823848834518  34.848224575511075  -22.841229228530235  24.509307173952536  0.000000
2.535  0.000000  0.000000  0.000000  -27.558295353336845  0.35232545612358596  -2.7930736174034334  59.79273195227955  18.261399363081097  1.8707462314821643  42.76957529697651  32.937481648501574  -20.73134875073096  24.856961567373794  0.000000
2.574  0.000000  0.000000  0.000000  -27.340421066382127  -0.015385845819582009  -3.1021582592105275  59.249549480515796  17.46885504759303  1.319568189746127  41.67842143368946  31.099194165642572  -18.498026335938686  25.27477567349132  0.000000
2.613  0.000000  0.000000  0.000000  -27.11492922195154  -0.32265166317166377  -3.3593285483641995  58.561227647628236  16.638355356261375  0.7437755841531205  40.58185568837012  29.276450439229503  -16.207380124782567  25.72694962514561  0.000000
2.652  0.000000  0.000000  0.000000  -26.877265231253507  -0.5886617785880333  -3.604985158370047  57.707135824021165  15.816058483947126  0.13385650097399532  39.569569421467435  27.456909269641027  -13.934981638055381  26.181481682324076  0.000000
2.691  0.000000  0.000000  0.000000  -26.60106716409039  -0.7971852707422115  -3.8459939034298007  56.656640773678234  15.001040212109114  -0.5194145853493572  38.71040508812782  25.67563503547221  -11.773756502883014  26.608961025415315  0.000000
2.73  0.000000  0.000000  0.000000  -26.276730866810254  -0.9536657670032525  -4.030664699660403  55.388473084504426  14.143973569221261  -1.265027821378363  38.07016637455248  24.018416413762665  -9.784428952454245  26.978102666259744  0.000000
2.769  0.000000  0.000000  0.000000  -25.854682968614014  -1.1021806336140378  -4.056167794114949  53.91691388287721  13.155560162898938  -2.2329102094153583  37.666194453883335  22.552509304009572  -8.00676167656045  27.294284888811095  0.000000
2.808  0.000000  0.000000  0.000000  -25.45444980142392  -1.2325318438775767  -3.81899402775748  52.4045949714302  11.932109024283188  -3.442937813385355  37.39613132534191  21.24287089020338  -6.352903502710357  27.55583689738656  0.000000
2.847  0.000000  0.000000  0.000000  -25.25097019266294  -1.3721900942731118  -3.2426774442977875  51.23090249989184  10.542800470267307  -4.790301620823142  36.84811586732953  19.81727608989691  -4.621341033608098  27.65845044282288  0.000000
